<svg width="100%" height="100%" viewBox="0 0 375 375" fill="none" xmlns="http://www.w3.org/2000/svg">
<path fill-rule="evenodd" clip-rule="evenodd" d="M148.158 90.2262C160.472 85.1254 173.671 82.5 187 82.5C200.329 82.5 213.528 85.1254 225.842 90.2262C238.157 95.3271 249.346 102.804 258.771 112.229C268.196 121.654 275.673 132.843 280.774 145.158C285.875 157.472 288.5 170.671 288.5 184V201H307L307 184C307 168.241 303.896 152.637 297.866 138.078C291.835 123.519 282.996 110.29 271.853 99.1472C260.71 88.0042 247.481 79.165 232.922 73.1345C218.363 67.1039 202.759 64 187 64C171.241 64 155.637 67.1039 141.078 73.1345C126.519 79.165 113.29 88.0042 102.147 99.1472C91.0042 110.29 82.165 123.519 76.1345 138.078C70.1039 152.637 67 168.241 67 184L67 201L115 201V184C115 174.545 116.862 165.182 120.481 156.447C124.099 147.711 129.402 139.774 136.088 133.088C142.774 126.402 150.711 121.099 159.447 117.481C168.182 113.862 177.545 112 187 112C196.455 112 205.818 113.862 214.553 117.481C223.289 121.099 231.226 126.402 237.912 133.088C244.598 139.774 249.901 147.711 253.519 156.447C257.138 165.182 259 174.545 259 184H248C248 175.989 246.422 168.057 243.357 160.656C240.291 153.255 235.798 146.531 230.134 140.866C224.469 135.202 217.745 130.709 210.344 127.643C202.943 124.578 195.011 123 187 123C178.989 123 171.057 124.578 163.656 127.643C156.255 130.709 149.531 135.202 143.867 140.866C138.202 146.531 133.709 153.255 130.643 160.656C127.578 168.057 126 175.989 126 184V201H144V184C144 178.353 145.112 172.762 147.273 167.545C149.434 162.328 152.602 157.587 156.594 153.594C160.587 149.601 165.328 146.434 170.545 144.273C175.762 142.112 181.353 141 187 141C192.647 141 198.238 142.112 203.455 144.273C208.672 146.434 213.413 149.601 217.406 153.594C221.399 157.587 224.566 162.328 226.727 167.545C228.888 172.762 230 178.353 230 184V201H277L277 184C277 172.181 274.672 160.478 270.149 149.558C265.626 138.639 258.997 128.718 250.64 120.36C242.282 112.003 232.361 105.374 221.442 100.851C210.522 96.3279 198.819 94 187 94C175.181 94 163.478 96.3279 152.559 100.851C141.639 105.374 131.718 112.003 123.36 120.36C115.003 128.718 108.374 138.639 103.851 149.559C99.3279 160.478 97 172.181 97 184H85.5C85.5 170.671 88.1254 157.472 93.2262 145.158C98.3271 132.843 105.804 121.654 115.229 112.229C124.654 102.804 135.843 95.3271 148.158 90.2262Z" fill="#3A3A3C"/>
<path fill-rule="evenodd" clip-rule="evenodd" d="M362.601 225.618L330.725 217.077L330.242 216.948L330.238 216.962C329.311 216.771 328.357 216.736 327.416 216.86C326.309 217.006 325.242 217.368 324.275 217.926C323.308 218.484 322.461 219.228 321.782 220.113C321.102 220.999 320.604 222.009 320.315 223.088C320.026 224.166 319.952 225.29 320.098 226.397C320.244 227.504 320.606 228.571 321.164 229.538C321.722 230.504 322.465 231.352 323.351 232.031C324.104 232.609 324.947 233.056 325.846 233.354L325.842 233.369L326.325 233.498L358.201 242.039L358.684 242.168L358.688 242.154C359.615 242.345 360.569 242.38 361.51 242.256C362.617 242.11 363.684 241.748 364.651 241.19C365.617 240.632 366.465 239.889 367.144 239.003C367.824 238.117 368.322 237.107 368.611 236.029C368.9 234.95 368.974 233.826 368.828 232.719C368.682 231.612 368.32 230.545 367.762 229.579C367.204 228.612 366.461 227.765 365.575 227.085C364.822 226.507 363.978 226.06 363.08 225.762L363.084 225.748L362.601 225.618Z" fill="#3A3A3C"/>
<path fill-rule="evenodd" clip-rule="evenodd" d="M346.769 269.639L318.19 253.139L317.757 252.889L317.749 252.902C316.903 252.477 315.99 252.197 315.049 252.073C313.942 251.927 312.818 252.001 311.74 252.29C310.662 252.579 309.651 253.077 308.765 253.756C307.88 254.436 307.137 255.283 306.578 256.25C306.02 257.217 305.658 258.284 305.512 259.391C305.367 260.497 305.44 261.622 305.729 262.7C306.018 263.778 306.517 264.789 307.196 265.674C307.774 266.428 308.473 267.078 309.264 267.598L309.257 267.611L309.69 267.861L338.269 284.361L338.702 284.611L338.709 284.598C339.555 285.023 340.468 285.303 341.409 285.427C342.516 285.573 343.64 285.499 344.719 285.21C345.797 284.921 346.807 284.423 347.693 283.743C348.579 283.064 349.322 282.217 349.88 281.25C350.438 280.283 350.8 279.216 350.946 278.109C351.092 277.003 351.018 275.878 350.729 274.8C350.44 273.722 349.942 272.711 349.262 271.826C348.684 271.072 347.985 270.422 347.194 269.902L347.202 269.889L346.769 269.639Z" fill="#3A3A3C"/>
<path fill-rule="evenodd" clip-rule="evenodd" d="M320.083 308.062L296.748 284.727L296.394 284.374L296.384 284.384C295.676 283.755 294.867 283.248 293.99 282.885C292.959 282.457 291.854 282.238 290.738 282.238C289.621 282.238 288.516 282.457 287.485 282.885C286.454 283.312 285.517 283.938 284.727 284.727C283.938 285.516 283.312 286.453 282.885 287.485C282.457 288.516 282.238 289.621 282.238 290.738C282.238 291.854 282.457 292.959 282.885 293.99C283.248 294.867 283.755 295.676 284.384 296.384L284.374 296.394L284.727 296.748L308.062 320.082L308.415 320.436L308.426 320.426C309.133 321.055 309.942 321.562 310.819 321.925C311.851 322.352 312.956 322.572 314.072 322.572C315.188 322.572 316.294 322.352 317.325 321.925C318.356 321.498 319.293 320.872 320.083 320.082C320.872 319.293 321.498 318.356 321.925 317.325C322.352 316.294 322.572 315.188 322.572 314.072C322.572 312.956 322.352 311.851 321.925 310.819C321.562 309.942 321.055 309.133 320.426 308.426L320.436 308.415L320.083 308.062Z" fill="#3A3A3C"/>
<path fill-rule="evenodd" clip-rule="evenodd" d="M284.361 338.269L267.861 309.69L267.611 309.257L267.598 309.264C267.078 308.473 266.428 307.774 265.674 307.196C264.789 306.517 263.778 306.018 262.7 305.729C261.622 305.44 260.497 305.367 259.391 305.512C258.284 305.658 257.217 306.02 256.25 306.578C255.283 307.137 254.436 307.88 253.757 308.765C253.077 309.651 252.579 310.662 252.29 311.74C252.001 312.818 251.927 313.942 252.073 315.049C252.197 315.99 252.477 316.903 252.902 317.749L252.889 317.757L253.139 318.19L269.639 346.769L269.889 347.202L269.902 347.194C270.422 347.985 271.072 348.684 271.826 349.262C272.711 349.942 273.722 350.44 274.8 350.729C275.878 351.018 277.003 351.092 278.109 350.946C279.216 350.8 280.283 350.438 281.25 349.88C282.217 349.322 283.064 348.579 283.744 347.693C284.423 346.807 284.921 345.797 285.21 344.719C285.499 343.64 285.573 342.516 285.427 341.409C285.303 340.468 285.023 339.555 284.598 338.709L284.611 338.702L284.361 338.269Z" fill="#3A3A3C"/>
<path fill-rule="evenodd" clip-rule="evenodd" d="M242.039 358.201L233.498 326.325L233.369 325.842L233.354 325.846C233.056 324.947 232.609 324.104 232.031 323.351C231.352 322.465 230.504 321.722 229.538 321.164C228.571 320.606 227.504 320.244 226.397 320.098C225.29 319.952 224.166 320.026 223.088 320.315C222.009 320.604 220.999 321.102 220.113 321.782C219.228 322.461 218.484 323.308 217.926 324.275C217.368 325.242 217.006 326.309 216.86 327.416C216.736 328.357 216.771 329.311 216.962 330.238L216.948 330.242L217.077 330.725L225.618 362.601L225.748 363.084L225.762 363.08C226.06 363.978 226.507 364.822 227.085 365.575C227.765 366.461 228.612 367.204 229.579 367.762C230.545 368.32 231.612 368.682 232.719 368.828C233.826 368.974 234.95 368.9 236.029 368.611C237.107 368.322 238.118 367.824 239.003 367.144C239.889 366.465 240.632 365.617 241.19 364.651C241.748 363.684 242.11 362.617 242.256 361.51C242.38 360.569 242.345 359.615 242.154 358.688L242.168 358.684L242.039 358.201Z" fill="#3A3A3C"/>
<path fill-rule="evenodd" clip-rule="evenodd" d="M196 366.5V333.5V333H195.985C195.93 332.055 195.716 331.124 195.353 330.247C194.926 329.216 194.3 328.279 193.51 327.49C192.721 326.7 191.784 326.074 190.753 325.647C189.722 325.22 188.616 325 187.5 325C186.384 325 185.278 325.22 184.247 325.647C183.216 326.074 182.279 326.7 181.49 327.49C180.7 328.279 180.074 329.216 179.647 330.247C179.284 331.124 179.07 332.055 179.015 333H179V333.5V366.5V367H179.015C179.07 367.945 179.284 368.876 179.647 369.753C180.074 370.784 180.7 371.721 181.49 372.51C182.279 373.3 183.216 373.926 184.247 374.353C185.278 374.78 186.384 375 187.5 375C188.616 375 189.722 374.78 190.753 374.353C191.784 373.926 192.721 373.3 193.51 372.51C194.3 371.721 194.926 370.784 195.353 369.753C195.716 368.876 195.93 367.945 195.985 367H196V366.5Z" fill="#3A3A3C"/>
<path fill-rule="evenodd" clip-rule="evenodd" d="M149.382 362.601L157.923 330.725L158.052 330.242L158.038 330.238C158.229 329.311 158.264 328.357 158.14 327.416C157.994 326.309 157.632 325.242 157.074 324.275C156.516 323.309 155.772 322.461 154.887 321.782C154.001 321.102 152.991 320.604 151.912 320.315C150.834 320.026 149.71 319.952 148.603 320.098C147.496 320.244 146.429 320.606 145.462 321.164C144.496 321.722 143.648 322.465 142.969 323.351C142.391 324.104 141.944 324.947 141.646 325.846L141.631 325.842L141.502 326.325L132.961 358.201L132.832 358.684L132.846 358.688C132.655 359.615 132.62 360.569 132.744 361.51C132.89 362.617 133.252 363.684 133.81 364.651C134.368 365.617 135.111 366.465 135.997 367.144C136.883 367.824 137.893 368.322 138.971 368.611C140.05 368.9 141.174 368.974 142.281 368.828C143.388 368.682 144.455 368.32 145.421 367.762C146.388 367.204 147.235 366.461 147.915 365.575C148.493 364.822 148.94 363.979 149.238 363.08L149.252 363.084L149.382 362.601Z" fill="#3A3A3C"/>
<path fill-rule="evenodd" clip-rule="evenodd" d="M105.361 346.769L121.861 318.19L122.111 317.757L122.098 317.749C122.523 316.903 122.803 315.99 122.927 315.049C123.073 313.942 122.999 312.818 122.71 311.74C122.421 310.662 121.923 309.651 121.244 308.765C120.564 307.88 119.717 307.137 118.75 306.578C117.783 306.02 116.716 305.658 115.609 305.512C114.503 305.367 113.378 305.44 112.3 305.729C111.222 306.018 110.211 306.517 109.326 307.196C108.572 307.774 107.922 308.473 107.402 309.264L107.389 309.257L107.139 309.69L90.6388 338.269L90.3888 338.702L90.4015 338.709C89.9771 339.555 89.6966 340.468 89.5727 341.409C89.427 342.516 89.5007 343.64 89.7896 344.719C90.0785 345.797 90.577 346.807 91.2565 347.693C91.936 348.579 92.7833 349.322 93.75 349.88C94.7167 350.438 95.7839 350.8 96.8905 350.946C97.9972 351.092 99.1218 351.018 100.2 350.729C101.278 350.44 102.289 349.942 103.174 349.262C103.928 348.684 104.578 347.985 105.098 347.194L105.111 347.202L105.361 346.769Z" fill="#3A3A3C"/>
<path fill-rule="evenodd" clip-rule="evenodd" d="M66.9383 320.083L90.2728 296.748L90.6264 296.394L90.616 296.384C91.245 295.676 91.7521 294.867 92.1154 293.99C92.5426 292.959 92.7624 291.854 92.7624 290.738C92.7624 289.621 92.5426 288.516 92.1154 287.485C91.6882 286.454 91.0621 285.517 90.2728 284.727C89.4835 283.938 88.5465 283.312 87.5152 282.885C86.484 282.457 85.3787 282.238 84.2624 282.238C83.1462 282.238 82.0409 282.457 81.0096 282.885C80.1326 283.248 79.3238 283.755 78.616 284.384L78.6056 284.374L78.252 284.727L54.9175 308.062L54.5639 308.415L54.5743 308.426C53.9453 309.133 53.4382 309.942 53.0749 310.819C52.6478 311.851 52.4279 312.956 52.4279 314.072C52.4279 315.188 52.6478 316.294 53.0749 317.325C53.5021 318.356 54.1282 319.293 54.9175 320.083C55.7068 320.872 56.6438 321.498 57.6751 321.925C58.7064 322.352 59.8117 322.572 60.9279 322.572C62.0441 322.572 63.1494 322.352 64.1807 321.925C65.0577 321.562 65.8666 321.055 66.5743 320.426L66.5848 320.436L66.9383 320.083Z" fill="#3A3A3C"/>
<path fill-rule="evenodd" clip-rule="evenodd" d="M36.9204 284.6L65.4992 268.1L65.9322 267.85L65.9249 267.837C66.7157 267.317 67.4149 266.666 67.9927 265.913C68.6723 265.028 69.1707 264.017 69.4596 262.939C69.7485 261.861 69.8222 260.736 69.6765 259.629C69.5308 258.523 69.1686 257.456 68.6104 256.489C68.0523 255.522 67.3093 254.675 66.4237 253.995C65.5381 253.316 64.5274 252.817 63.4492 252.529C62.371 252.24 61.2464 252.166 60.1398 252.312C59.1986 252.436 58.2861 252.716 57.4396 253.14L57.4322 253.128L56.9992 253.378L28.4204 269.878L27.9874 270.128L27.9947 270.14C27.204 270.661 26.5048 271.311 25.9269 272.064C25.2474 272.95 24.7489 273.961 24.46 275.039C24.1711 276.117 24.0974 277.242 24.2431 278.348C24.3888 279.455 24.7511 280.522 25.3092 281.489C25.8673 282.456 26.6103 283.303 27.4959 283.982C28.3815 284.662 29.3922 285.16 30.4704 285.449C31.5486 285.738 32.6732 285.812 33.7799 285.666C34.721 285.542 35.6335 285.262 36.48 284.837L36.4874 284.85L36.9204 284.6Z" fill="#3A3A3C"/>
<path fill-rule="evenodd" clip-rule="evenodd" d="M16.7992 242.039L48.6748 233.498L49.1577 233.369L49.1539 233.354C50.0526 233.056 50.8962 232.609 51.6493 232.031C52.5349 231.352 53.2779 230.504 53.836 229.538C54.3942 228.571 54.7564 227.504 54.9021 226.397C55.0478 225.29 54.9741 224.166 54.6852 223.088C54.3963 222.009 53.8978 220.999 53.2183 220.113C52.5388 219.228 51.6915 218.484 50.7248 217.926C49.7581 217.368 48.691 217.006 47.5843 216.86C46.6432 216.736 45.6891 216.771 44.7616 216.962L44.7578 216.948L44.2749 217.077L12.3993 225.618L11.9163 225.748L11.9202 225.762C11.0215 226.06 10.1779 226.507 9.4248 227.085C8.53923 227.765 7.79617 228.612 7.23806 229.579C6.67994 230.545 6.31769 231.612 6.17199 232.719C6.02629 233.826 6.1 234.95 6.3889 236.029C6.6778 237.107 7.17625 238.118 7.85577 239.003C8.53529 239.889 9.38258 240.632 10.3493 241.19C11.316 241.748 12.3831 242.11 13.4898 242.256C14.4309 242.38 15.385 242.345 16.3125 242.154L16.3163 242.168L16.7992 242.039Z" fill="#3A3A3C"/>
<path fill-rule="evenodd" clip-rule="evenodd" d="M8.5 196H41.5H42V195.985C42.9453 195.93 43.8758 195.716 44.7528 195.353C45.7841 194.926 46.7211 194.3 47.5104 193.51C48.2997 192.721 48.9258 191.784 49.353 190.753C49.7801 189.722 50 188.616 50 187.5C50 186.384 49.7801 185.278 49.353 184.247C48.9258 183.216 48.2997 182.279 47.5104 181.49C46.7211 180.7 45.7841 180.074 44.7528 179.647C43.8758 179.284 42.9453 179.07 42 179.015V179H41.5H8.5H8V179.015C7.05473 179.07 6.12419 179.284 5.24719 179.647C4.21592 180.074 3.27889 180.7 2.48959 181.49C1.70029 182.279 1.07419 183.216 0.647022 184.247C0.21986 185.278 0 186.384 0 187.5C0 188.616 0.21986 189.722 0.647026 190.753C1.07419 191.784 1.70029 192.721 2.48959 193.51C3.27889 194.3 4.21592 194.926 5.24719 195.353C6.12419 195.716 7.05473 195.93 8 195.985V196H8.5Z" fill="#3A3A3C"/>
<path fill-rule="evenodd" clip-rule="evenodd" d="M11.9202 149.238L11.9163 149.252L12.3993 149.382L44.2749 157.923L44.7578 158.052L44.7616 158.038C45.6891 158.229 46.6432 158.264 47.5843 158.14C48.691 157.994 49.7581 157.632 50.7248 157.074C51.6915 156.516 52.5388 155.772 53.2183 154.887C53.8978 154.001 54.3963 152.991 54.6852 151.912C54.9741 150.834 55.0478 149.71 54.9021 148.603C54.7564 147.496 54.3942 146.429 53.836 145.462C53.2779 144.496 52.5349 143.648 51.6493 142.969C50.8962 142.391 50.0526 141.944 49.1539 141.646L49.1577 141.631L48.6748 141.502L16.7992 132.961L16.3163 132.832L16.3125 132.846C15.385 132.655 14.4309 132.62 13.4898 132.744C12.3831 132.89 11.316 133.252 10.3493 133.81C9.38258 134.368 8.53528 135.111 7.85576 135.997C7.17624 136.882 6.6778 137.893 6.3889 138.971C6.09999 140.05 6.02629 141.174 6.17198 142.281C6.31768 143.388 6.67993 144.455 7.23805 145.421C7.79617 146.388 8.53922 147.235 9.42479 147.915C10.1779 148.493 11.0215 148.94 11.9202 149.238Z" fill="#3A3A3C"/>
<path fill-rule="evenodd" clip-rule="evenodd" d="M27.8058 105.098L27.7984 105.111L28.2315 105.361L56.8103 121.861L57.2433 122.111L57.2507 122.098C58.0971 122.523 59.0097 122.803 59.9508 122.927C61.0575 123.073 62.1821 122.999 63.2603 122.71C64.3385 122.421 65.3492 121.923 66.2348 121.243C67.1203 120.564 67.8634 119.717 68.4215 118.75C68.9796 117.783 69.3419 116.716 69.4876 115.609C69.6333 114.503 69.5596 113.378 69.2707 112.3C68.9818 111.222 68.4833 110.211 67.8038 109.326C67.2259 108.572 66.5267 107.922 65.7359 107.402L65.7433 107.389L65.3103 107.139L36.7315 90.6388L36.2984 90.3888L36.2911 90.4015C35.4446 89.9771 34.5321 89.6966 33.5909 89.5727C32.4842 89.427 31.3597 89.5007 30.2815 89.7896C29.2033 90.0785 28.1926 90.577 27.307 91.2565C26.4214 91.936 25.6784 92.7833 25.1202 93.75C24.5621 94.7167 24.1999 95.7838 24.0542 96.8905C23.9085 97.9972 23.9822 99.1218 24.2711 100.2C24.56 101.278 25.0584 102.289 25.738 103.174C26.3158 103.928 27.015 104.578 27.8058 105.098Z" fill="#3A3A3C"/>
<path fill-rule="evenodd" clip-rule="evenodd" d="M54.5743 66.5743L54.5639 66.5847L54.9175 66.9383L78.252 90.2728L78.6056 90.6264L78.616 90.616C79.3238 91.245 80.1326 91.7521 81.0096 92.1154C82.0409 92.5426 83.1462 92.7624 84.2624 92.7624C85.3786 92.7624 86.484 92.5426 87.5152 92.1154C88.5465 91.6882 89.4835 91.0621 90.2728 90.2728C91.0621 89.4835 91.6882 88.5465 92.1154 87.5152C92.5426 86.484 92.7624 85.3786 92.7624 84.2624C92.7624 83.1462 92.5426 82.0409 92.1154 81.0096C91.7521 80.1326 91.245 79.3238 90.616 78.616L90.6264 78.6056L90.2728 78.252L66.9383 54.9175L66.5847 54.5639L66.5743 54.5743C65.8665 53.9453 65.0577 53.4382 64.1807 53.0749C63.1494 52.6477 62.0441 52.4279 60.9279 52.4279C59.8117 52.4279 58.7063 52.6477 57.6751 53.0749C56.6438 53.5021 55.7068 54.1282 54.9175 54.9175C54.1282 55.7068 53.5021 56.6438 53.0749 57.6751C52.6477 58.7063 52.4279 59.8117 52.4279 60.9279C52.4279 62.0441 52.6477 63.1494 53.0749 64.1807C53.4382 65.0577 53.9453 65.8665 54.5743 66.5743Z" fill="#3A3A3C"/>
<path fill-rule="evenodd" clip-rule="evenodd" d="M90.4015 36.2911L90.3888 36.2984L90.6388 36.7315L107.139 65.3103L107.389 65.7433L107.402 65.7359C107.922 66.5267 108.572 67.2259 109.326 67.8038C110.211 68.4833 111.222 68.9818 112.3 69.2707C113.378 69.5596 114.503 69.6333 115.609 69.4876C116.716 69.3419 117.783 68.9796 118.75 68.4215C119.717 67.8634 120.564 67.1203 121.244 66.2348C121.923 65.3492 122.421 64.3385 122.71 63.2603C122.999 62.1821 123.073 61.0575 122.927 59.9508C122.803 59.0097 122.523 58.0971 122.098 57.2507L122.111 57.2433L121.861 56.8103L105.361 28.2315L105.111 27.7984L105.098 27.8058C104.578 27.015 103.928 26.3158 103.174 25.738C102.289 25.0584 101.278 24.56 100.2 24.2711C99.1218 23.9822 97.9972 23.9085 96.8905 24.0542C95.7839 24.1999 94.7167 24.5621 93.75 25.1202C92.7833 25.6784 91.936 26.4214 91.2565 27.307C90.577 28.1926 90.0785 29.2033 89.7896 30.2815C89.5007 31.3597 89.427 32.4842 89.5727 33.5909C89.6966 34.5321 89.9771 35.4446 90.4015 36.2911Z" fill="#3A3A3C"/>
<path fill-rule="evenodd" clip-rule="evenodd" d="M132.846 16.3125L132.832 16.3163L132.961 16.7992L141.502 48.6748L141.631 49.1578L141.646 49.1539C141.944 50.0526 142.391 50.8962 142.969 51.6493C143.648 52.5349 144.496 53.2779 145.462 53.836C146.429 54.3942 147.496 54.7564 148.603 54.9021C149.71 55.0478 150.834 54.9741 151.912 54.6852C152.991 54.3963 154.001 53.8979 154.887 53.2183C155.772 52.5388 156.516 51.6915 157.074 50.7248C157.632 49.7581 157.994 48.691 158.14 47.5843C158.264 46.6432 158.229 45.6891 158.038 44.7616L158.052 44.7578L157.923 44.2749L149.382 12.3993L149.252 11.9163L149.238 11.9202C148.94 11.0215 148.493 10.1779 147.915 9.4248C147.235 8.53923 146.388 7.79618 145.421 7.23806C144.455 6.67994 143.388 6.31769 142.281 6.17199C141.174 6.0263 140.05 6.1 138.971 6.38891C137.893 6.67781 136.882 7.17625 135.997 7.85577C135.111 8.53529 134.368 9.38259 133.81 10.3493C133.252 11.316 132.89 12.3831 132.744 13.4898C132.62 14.4309 132.655 15.385 132.846 16.3125Z" fill="#3A3A3C"/>
<path fill-rule="evenodd" clip-rule="evenodd" d="M179.015 8H179V8.5V41.5V42H179.015C179.07 42.9453 179.284 43.8758 179.647 44.7528C180.074 45.7841 180.7 46.7211 181.49 47.5104C182.279 48.2997 183.216 48.9258 184.247 49.353C185.278 49.7801 186.384 50 187.5 50C188.616 50 189.722 49.7801 190.753 49.353C191.784 48.9258 192.721 48.2997 193.51 47.5104C194.3 46.7211 194.926 45.7841 195.353 44.7528C195.716 43.8758 195.93 42.9453 195.985 42H196V41.5V8.5V8H195.985C195.93 7.05473 195.716 6.12419 195.353 5.24719C194.926 4.21592 194.3 3.27889 193.51 2.48959C192.721 1.70029 191.784 1.07419 190.753 0.647024C189.722 0.219859 188.616 0 187.5 0C186.384 0 185.278 0.219859 184.247 0.647024C183.216 1.07419 182.279 1.70029 181.49 2.48959C180.7 3.27889 180.074 4.21592 179.647 5.24719C179.284 6.12419 179.07 7.05473 179.015 8Z" fill="#3A3A3C"/>
<path fill-rule="evenodd" clip-rule="evenodd" d="M225.762 11.9202L225.748 11.9163L225.618 12.3993L217.077 44.2749L216.948 44.7578L216.962 44.7616C216.771 45.6891 216.736 46.6432 216.86 47.5843C217.006 48.691 217.368 49.7581 217.926 50.7248C218.484 51.6915 219.228 52.5388 220.113 53.2183C220.999 53.8978 222.009 54.3963 223.088 54.6852C224.166 54.9741 225.29 55.0478 226.397 54.9021C227.504 54.7564 228.571 54.3942 229.538 53.836C230.504 53.2779 231.352 52.5349 232.031 51.6493C232.609 50.8962 233.056 50.0526 233.354 49.1539L233.369 49.1577L233.498 48.6748L242.039 16.7992L242.168 16.3163L242.154 16.3125C242.345 15.385 242.38 14.4309 242.256 13.4898C242.11 12.3831 241.748 11.316 241.19 10.3493C240.632 9.38258 239.889 8.53528 239.003 7.85576C238.118 7.17624 237.107 6.6778 236.029 6.3889C234.95 6.09999 233.826 6.02629 232.719 6.17198C231.612 6.31768 230.545 6.67993 229.579 7.23805C228.612 7.79617 227.765 8.53922 227.085 9.42479C226.507 10.1779 226.06 11.0215 225.762 11.9202Z" fill="#3A3A3C"/>
<path fill-rule="evenodd" clip-rule="evenodd" d="M269.902 27.8058L269.889 27.7984L269.639 28.2315L253.139 56.8103L252.889 57.2433L252.902 57.2507C252.477 58.0971 252.197 59.0097 252.073 59.9508C251.927 61.0575 252.001 62.1821 252.29 63.2603C252.579 64.3385 253.077 65.3492 253.757 66.2348C254.436 67.1203 255.283 67.8634 256.25 68.4215C257.217 68.9796 258.284 69.3419 259.391 69.4876C260.497 69.6333 261.622 69.5596 262.7 69.2707C263.778 68.9818 264.789 68.4833 265.674 67.8038C266.428 67.2259 267.078 66.5267 267.598 65.7359L267.611 65.7433L267.861 65.3103L284.361 36.7315L284.611 36.2984L284.598 36.2911C285.023 35.4446 285.303 34.5321 285.427 33.5909C285.573 32.4842 285.499 31.3597 285.21 30.2815C284.921 29.2033 284.423 28.1926 283.744 27.307C283.064 26.4214 282.217 25.6784 281.25 25.1202C280.283 24.5621 279.216 24.1999 278.109 24.0542C277.003 23.9085 275.878 23.9822 274.8 24.2711C273.722 24.56 272.711 25.0584 271.826 25.738C271.072 26.3158 270.422 27.015 269.902 27.8058Z" fill="#3A3A3C"/>
<path fill-rule="evenodd" clip-rule="evenodd" d="M308.426 54.5743L308.415 54.5639L308.062 54.9175L284.727 78.252L284.374 78.6056L284.384 78.616C283.755 79.3238 283.248 80.1326 282.885 81.0096C282.457 82.0409 282.238 83.1462 282.238 84.2624C282.238 85.3786 282.457 86.484 282.885 87.5152C283.312 88.5465 283.938 89.4835 284.727 90.2728C285.517 91.0621 286.454 91.6882 287.485 92.1154C288.516 92.5426 289.621 92.7624 290.738 92.7624C291.854 92.7624 292.959 92.5426 293.99 92.1154C294.867 91.7521 295.676 91.245 296.384 90.616L296.394 90.6264L296.748 90.2728L320.083 66.9383L320.436 66.5847L320.426 66.5743C321.055 65.8665 321.562 65.0577 321.925 64.1807C322.352 63.1494 322.572 62.0441 322.572 60.9279C322.572 59.8117 322.352 58.7063 321.925 57.6751C321.498 56.6438 320.872 55.7068 320.083 54.9175C319.293 54.1282 318.356 53.5021 317.325 53.0749C316.294 52.6477 315.188 52.4279 314.072 52.4279C312.956 52.4279 311.851 52.6477 310.819 53.0749C309.942 53.4382 309.133 53.9453 308.426 54.5743Z" fill="#3A3A3C"/>
<path fill-rule="evenodd" clip-rule="evenodd" d="M338.898 90.6405L338.891 90.6277L338.458 90.8777L309.879 107.378L309.446 107.628L309.453 107.64C308.662 108.161 307.963 108.811 307.385 109.564C306.706 110.45 306.207 111.461 305.918 112.539C305.629 113.617 305.556 114.742 305.701 115.848C305.847 116.955 306.209 118.022 306.767 118.989C307.326 119.956 308.069 120.803 308.954 121.482C309.84 122.162 310.851 122.66 311.929 122.949C313.007 123.238 314.131 123.312 315.238 123.166C316.179 123.042 317.092 122.762 317.938 122.337L317.946 122.35L318.379 122.1L346.958 105.6L347.391 105.35L347.383 105.337C348.174 104.817 348.873 104.166 349.451 103.413C350.131 102.528 350.629 101.517 350.918 100.439C351.207 99.3607 351.28 98.2361 351.135 97.1295C350.989 96.0228 350.627 94.9556 350.069 93.9889C349.511 93.0222 348.768 92.1749 347.882 91.4954C346.996 90.8159 345.986 90.3175 344.907 90.0286C343.829 89.7397 342.705 89.666 341.598 89.8117C340.657 89.9356 339.744 90.2161 338.898 90.6405Z" fill="#3A3A3C"/>
<path fill-rule="evenodd" clip-rule="evenodd" d="M358.688 132.846L358.684 132.832L358.201 132.961L326.325 141.502L325.842 141.631L325.846 141.646C324.947 141.944 324.104 142.391 323.351 142.969C322.465 143.648 321.722 144.496 321.164 145.462C320.606 146.429 320.244 147.496 320.098 148.603C319.952 149.71 320.026 150.834 320.315 151.912C320.604 152.991 321.102 154.001 321.782 154.887C322.461 155.772 323.308 156.516 324.275 157.074C325.242 157.632 326.309 157.994 327.416 158.14C328.357 158.264 329.311 158.229 330.238 158.038L330.242 158.052L330.725 157.923L362.601 149.382L363.084 149.252L363.08 149.238C363.978 148.94 364.822 148.493 365.575 147.915C366.461 147.235 367.204 146.388 367.762 145.421C368.32 144.455 368.682 143.388 368.828 142.281C368.974 141.174 368.9 140.05 368.611 138.971C368.322 137.893 367.824 136.882 367.144 135.997C366.465 135.111 365.617 134.368 364.651 133.81C363.684 133.252 362.617 132.89 361.51 132.744C360.569 132.62 359.615 132.655 358.688 132.846Z" fill="#3A3A3C"/>
<path fill-rule="evenodd" clip-rule="evenodd" d="M367 179.015V179H366.5H333.5H333V179.015C332.055 179.07 331.124 179.284 330.247 179.647C329.216 180.074 328.279 180.7 327.49 181.49C326.7 182.279 326.074 183.216 325.647 184.247C325.22 185.278 325 186.384 325 187.5C325 188.616 325.22 189.722 325.647 190.753C326.074 191.784 326.7 192.721 327.49 193.51C328.279 194.3 329.216 194.926 330.247 195.353C331.124 195.716 332.055 195.93 333 195.985V196H333.5H366.5H367V195.985C367.945 195.93 368.876 195.716 369.753 195.353C370.784 194.926 371.721 194.3 372.51 193.51C373.3 192.721 373.926 191.784 374.353 190.753C374.78 189.722 375 188.616 375 187.5C375 186.384 374.78 185.278 374.353 184.247C373.926 183.216 373.3 182.279 372.51 181.49C371.721 180.7 370.784 180.074 369.753 179.647C368.876 179.284 367.945 179.07 367 179.015Z" fill="#3A3A3C"/>
</svg>
